<svg id="visual" viewBox="0 0 900 450" width="900" height="450" xmlns="http://www.w3.org/2000/svg" xmlns:xlink="http://www.w3.org/1999/xlink" version="1.1"><rect x="0" y="0" width="900" height="450" fill="#000000"></rect><path d="M0 286L25 287.2C50 288.3 100 290.7 150 291.5C200 292.3 250 291.7 300 289.5C350 287.3 400 283.7 450 282.7C500 281.7 550 283.3 600 285.2C650 287 700 289 750 289.3C800 289.7 850 288.3 875 287.7L900 287L900 451L875 451C850 451 800 451 750 451C700 451 650 451 600 451C550 451 500 451 450 451C400 451 350 451 300 451C250 451 200 451 150 451C100 451 50 451 25 451L0 451Z" fill="#6600ff"></path><path d="M0 304L25 304.5C50 305 100 306 150 307.2C200 308.3 250 309.7 300 309.2C350 308.7 400 306.3 450 304.5C500 302.7 550 301.3 600 300.8C650 300.3 700 300.7 750 302C800 303.3 850 305.7 875 306.8L900 308L900 451L875 451C850 451 800 451 750 451C700 451 650 451 600 451C550 451 500 451 450 451C400 451 350 451 300 451C250 451 200 451 150 451C100 451 50 451 25 451L0 451Z" fill="#005eff"></path><path d="M0 326L25 325.2C50 324.3 100 322.7 150 322C200 321.3 250 321.7 300 322.3C350 323 400 324 450 324C500 324 550 323 600 323.7C650 324.3 700 326.7 750 326.7C800 326.7 850 324.3 875 323.2L900 322L900 451L875 451C850 451 800 451 750 451C700 451 650 451 600 451C550 451 500 451 450 451C400 451 350 451 300 451C250 451 200 451 150 451C100 451 50 451 25 451L0 451Z" fill="#0085ff"></path><path d="M0 336L25 335.7C50 335.3 100 334.7 150 335.8C200 337 250 340 300 342.2C350 344.3 400 345.7 450 346.2C500 346.7 550 346.3 600 346.3C650 346.3 700 346.7 750 345.2C800 343.7 850 340.3 875 338.7L900 337L900 451L875 451C850 451 800 451 750 451C700 451 650 451 600 451C550 451 500 451 450 451C400 451 350 451 300 451C250 451 200 451 150 451C100 451 50 451 25 451L0 451Z" fill="#00a2ff"></path><path d="M0 357L25 356.2C50 355.3 100 353.7 150 355.2C200 356.7 250 361.3 300 362.3C350 363.3 400 360.7 450 359.8C500 359 550 360 600 359.5C650 359 700 357 750 357.5C800 358 850 361 875 362.5L900 364L900 451L875 451C850 451 800 451 750 451C700 451 650 451 600 451C550 451 500 451 450 451C400 451 350 451 300 451C250 451 200 451 150 451C100 451 50 451 25 451L0 451Z" fill="#00bbff"></path><path d="M0 374L25 373.7C50 373.3 100 372.7 150 372.2C200 371.7 250 371.3 300 372.2C350 373 400 375 450 376C500 377 550 377 600 376.7C650 376.3 700 375.7 750 375.7C800 375.7 850 376.3 875 376.7L900 377L900 451L875 451C850 451 800 451 750 451C700 451 650 451 600 451C550 451 500 451 450 451C400 451 350 451 300 451C250 451 200 451 150 451C100 451 50 451 25 451L0 451Z" fill="#00d0ff"></path><path d="M0 394L25 393.3C50 392.7 100 391.3 150 390.7C200 390 250 390 300 391C350 392 400 394 450 395C500 396 550 396 600 395.7C650 395.3 700 394.7 750 395.7C800 396.7 850 399.3 875 400.7L900 402L900 451L875 451C850 451 800 451 750 451C700 451 650 451 600 451C550 451 500 451 450 451C400 451 350 451 300 451C250 451 200 451 150 451C100 451 50 451 25 451L0 451Z" fill="#00e3f4"></path><path d="M0 409L25 410.3C50 411.7 100 414.3 150 414.5C200 414.7 250 412.3 300 411.2C350 410 400 410 450 411.7C500 413.3 550 416.7 600 417.5C650 418.3 700 416.7 750 415C800 413.3 850 411.7 875 410.8L900 410L900 451L875 451C850 451 800 451 750 451C700 451 650 451 600 451C550 451 500 451 450 451C400 451 350 451 300 451C250 451 200 451 150 451C100 451 50 451 25 451L0 451Z" fill="#00f3d2"></path><path d="M0 425L25 425.5C50 426 100 427 150 429C200 431 250 434 300 435.5C350 437 400 437 450 435.3C500 433.7 550 430.3 600 429.7C650 429 700 431 750 432.7C800 434.3 850 435.7 875 436.3L900 437L900 451L875 451C850 451 800 451 750 451C700 451 650 451 600 451C550 451 500 451 450 451C400 451 350 451 300 451C250 451 200 451 150 451C100 451 50 451 25 451L0 451Z" fill="#00ffa3"></path></svg>