<svg id="visual" viewBox="0 0 900 600" width="900" height="600" xmlns="http://www.w3.org/2000/svg" xmlns:xlink="http://www.w3.org/1999/xlink" version="1.1"><rect x="0" y="0" width="900" height="600" fill="#000000"></rect><path d="M0 409L7.5 408C15 407 30 405 45 405C60 405 75 407 90 406C105 405 120 401 135 399.7C150 398.3 165 399.7 180 400.3C195 401 210 401 225 401.3C240 401.7 255 402.3 270 403.8C285 405.3 300 407.7 315 406.2C330 404.7 345 399.3 360 399.3C375 399.3 390 404.7 405 407.2C420 409.7 435 409.3 450 409.3C465 409.3 480 409.7 495 407.2C510 404.7 525 399.3 540 398C555 396.7 570 399.3 585 402.2C600 405 615 408 630 406.2C645 404.3 660 397.7 675 397.3C690 397 705 403 720 404C735 405 750 401 765 398.2C780 395.3 795 393.7 810 396C825 398.3 840 404.7 855 405.2C870 405.7 885 400.3 892.5 397.7L900 395L900 601L892.5 601C885 601 870 601 855 601C840 601 825 601 810 601C795 601 780 601 765 601C750 601 735 601 720 601C705 601 690 601 675 601C660 601 645 601 630 601C615 601 600 601 585 601C570 601 555 601 540 601C525 601 510 601 495 601C480 601 465 601 450 601C435 601 420 601 405 601C390 601 375 601 360 601C345 601 330 601 315 601C300 601 285 601 270 601C255 601 240 601 225 601C210 601 195 601 180 601C165 601 150 601 135 601C120 601 105 601 90 601C75 601 60 601 45 601C30 601 15 601 7.5 601L0 601Z" fill="#6600ff"></path><path d="M0 417L7.5 417.3C15 417.7 30 418.3 45 419.3C60 420.3 75 421.7 90 421.7C105 421.7 120 420.3 135 421.2C150 422 165 425 180 425.7C195 426.3 210 424.7 225 423C240 421.3 255 419.7 270 420C285 420.3 300 422.7 315 424.2C330 425.7 345 426.3 360 425.8C375 425.3 390 423.7 405 424C420 424.3 435 426.7 450 427C465 427.3 480 425.7 495 423.2C510 420.7 525 417.3 540 417C555 416.7 570 419.3 585 421C600 422.7 615 423.3 630 423.3C645 423.3 660 422.7 675 423.2C690 423.7 705 425.3 720 426.2C735 427 750 427 765 427.2C780 427.3 795 427.7 810 426.2C825 424.7 840 421.3 855 420C870 418.7 885 419.3 892.5 419.7L900 420L900 601L892.5 601C885 601 870 601 855 601C840 601 825 601 810 601C795 601 780 601 765 601C750 601 735 601 720 601C705 601 690 601 675 601C660 601 645 601 630 601C615 601 600 601 585 601C570 601 555 601 540 601C525 601 510 601 495 601C480 601 465 601 450 601C435 601 420 601 405 601C390 601 375 601 360 601C345 601 330 601 315 601C300 601 285 601 270 601C255 601 240 601 225 601C210 601 195 601 180 601C165 601 150 601 135 601C120 601 105 601 90 601C75 601 60 601 45 601C30 601 15 601 7.5 601L0 601Z" fill="#005bff"></path><path d="M0 450L7.5 449C15 448 30 446 45 446.2C60 446.3 75 448.7 90 448.5C105 448.3 120 445.7 135 443.8C150 442 165 441 180 440C195 439 210 438 225 438.7C240 439.3 255 441.7 270 441.7C285 441.7 300 439.3 315 438C330 436.7 345 436.3 360 437C375 437.7 390 439.3 405 441.7C420 444 435 447 450 447.2C465 447.3 480 444.7 495 443.8C510 443 525 444 540 443.7C555 443.3 570 441.7 585 440.7C600 439.7 615 439.3 630 440.2C645 441 660 443 675 443.8C690 444.7 705 444.3 720 444.8C735 445.3 750 446.7 765 446C780 445.3 795 442.7 810 440.8C825 439 840 438 855 438.7C870 439.3 885 441.7 892.5 442.8L900 444L900 601L892.5 601C885 601 870 601 855 601C840 601 825 601 810 601C795 601 780 601 765 601C750 601 735 601 720 601C705 601 690 601 675 601C660 601 645 601 630 601C615 601 600 601 585 601C570 601 555 601 540 601C525 601 510 601 495 601C480 601 465 601 450 601C435 601 420 601 405 601C390 601 375 601 360 601C345 601 330 601 315 601C300 601 285 601 270 601C255 601 240 601 225 601C210 601 195 601 180 601C165 601 150 601 135 601C120 601 105 601 90 601C75 601 60 601 45 601C30 601 15 601 7.5 601L0 601Z" fill="#0081ff"></path><path d="M0 471L7.5 468.8C15 466.7 30 462.3 45 461.8C60 461.3 75 464.7 90 465C105 465.3 120 462.7 135 462.2C150 461.7 165 463.3 180 464.7C195 466 210 467 225 466.8C240 466.7 255 465.3 270 465.8C285 466.3 300 468.7 315 467.7C330 466.7 345 462.3 360 461.7C375 461 390 464 405 464.2C420 464.3 435 461.7 450 461.5C465 461.3 480 463.7 495 463.7C510 463.7 525 461.3 540 461.3C555 461.3 570 463.7 585 464.7C600 465.7 615 465.3 630 465.5C645 465.7 660 466.3 675 467.3C690 468.3 705 469.7 720 468.2C735 466.7 750 462.3 765 461.2C780 460 795 462 810 461.8C825 461.7 840 459.3 855 459.7C870 460 885 463 892.5 464.5L900 466L900 601L892.5 601C885 601 870 601 855 601C840 601 825 601 810 601C795 601 780 601 765 601C750 601 735 601 720 601C705 601 690 601 675 601C660 601 645 601 630 601C615 601 600 601 585 601C570 601 555 601 540 601C525 601 510 601 495 601C480 601 465 601 450 601C435 601 420 601 405 601C390 601 375 601 360 601C345 601 330 601 315 601C300 601 285 601 270 601C255 601 240 601 225 601C210 601 195 601 180 601C165 601 150 601 135 601C120 601 105 601 90 601C75 601 60 601 45 601C30 601 15 601 7.5 601L0 601Z" fill="#009eff"></path><path d="M0 480L7.5 480.8C15 481.7 30 483.3 45 483.2C60 483 75 481 90 481.8C105 482.7 120 486.3 135 487.8C150 489.3 165 488.7 180 487.8C195 487 210 486 225 485.2C240 484.3 255 483.7 270 484.5C285 485.3 300 487.7 315 488.5C330 489.3 345 488.7 360 486.8C375 485 390 482 405 482.5C420 483 435 487 450 488.3C465 489.7 480 488.3 495 488.2C510 488 525 489 540 488.2C555 487.3 570 484.7 585 483.5C600 482.3 615 482.7 630 482.3C645 482 660 481 675 481C690 481 705 482 720 482.5C735 483 750 483 765 483.5C780 484 795 485 810 484.5C825 484 840 482 855 482.8C870 483.7 885 487.3 892.5 489.2L900 491L900 601L892.5 601C885 601 870 601 855 601C840 601 825 601 810 601C795 601 780 601 765 601C750 601 735 601 720 601C705 601 690 601 675 601C660 601 645 601 630 601C615 601 600 601 585 601C570 601 555 601 540 601C525 601 510 601 495 601C480 601 465 601 450 601C435 601 420 601 405 601C390 601 375 601 360 601C345 601 330 601 315 601C300 601 285 601 270 601C255 601 240 601 225 601C210 601 195 601 180 601C165 601 150 601 135 601C120 601 105 601 90 601C75 601 60 601 45 601C30 601 15 601 7.5 601L0 601Z" fill="#00b6ff"></path><path d="M0 502L7.5 501.8C15 501.7 30 501.3 45 501.3C60 501.3 75 501.7 90 502.3C105 503 120 504 135 505.2C150 506.3 165 507.7 180 507.7C195 507.7 210 506.3 225 505.8C240 505.3 255 505.7 270 506.5C285 507.3 300 508.7 315 509C330 509.3 345 508.7 360 508.8C375 509 390 510 405 509.8C420 509.7 435 508.3 450 507.3C465 506.3 480 505.7 495 505.8C510 506 525 507 540 506.5C555 506 570 504 585 502.8C600 501.7 615 501.3 630 502.8C645 504.3 660 507.7 675 509C690 510.3 705 509.7 720 508.7C735 507.7 750 506.3 765 506.2C780 506 795 507 810 506.7C825 506.3 840 504.7 855 504.7C870 504.7 885 506.3 892.5 507.2L900 508L900 601L892.5 601C885 601 870 601 855 601C840 601 825 601 810 601C795 601 780 601 765 601C750 601 735 601 720 601C705 601 690 601 675 601C660 601 645 601 630 601C615 601 600 601 585 601C570 601 555 601 540 601C525 601 510 601 495 601C480 601 465 601 450 601C435 601 420 601 405 601C390 601 375 601 360 601C345 601 330 601 315 601C300 601 285 601 270 601C255 601 240 601 225 601C210 601 195 601 180 601C165 601 150 601 135 601C120 601 105 601 90 601C75 601 60 601 45 601C30 601 15 601 7.5 601L0 601Z" fill="#00caff"></path><path d="M0 531L7.5 530.7C15 530.3 30 529.7 45 528.5C60 527.3 75 525.7 90 526C105 526.3 120 528.7 135 528.3C150 528 165 525 180 525C195 525 210 528 225 528.5C240 529 255 527 270 525.5C285 524 300 523 315 522.7C330 522.3 345 522.7 360 523.2C375 523.7 390 524.3 405 525.3C420 526.3 435 527.7 450 528.5C465 529.3 480 529.7 495 530C510 530.3 525 530.7 540 530C555 529.3 570 527.7 585 526.7C600 525.7 615 525.3 630 526C645 526.7 660 528.3 675 528.5C690 528.7 705 527.3 720 526.3C735 525.3 750 524.7 765 525.5C780 526.3 795 528.7 810 529.2C825 529.7 840 528.3 855 528.2C870 528 885 529 892.5 529.5L900 530L900 601L892.5 601C885 601 870 601 855 601C840 601 825 601 810 601C795 601 780 601 765 601C750 601 735 601 720 601C705 601 690 601 675 601C660 601 645 601 630 601C615 601 600 601 585 601C570 601 555 601 540 601C525 601 510 601 495 601C480 601 465 601 450 601C435 601 420 601 405 601C390 601 375 601 360 601C345 601 330 601 315 601C300 601 285 601 270 601C255 601 240 601 225 601C210 601 195 601 180 601C165 601 150 601 135 601C120 601 105 601 90 601C75 601 60 601 45 601C30 601 15 601 7.5 601L0 601Z" fill="#00dcf6"></path><path d="M0 549L7.5 549C15 549 30 549 45 549C60 549 75 549 90 548.5C105 548 120 547 135 546.8C150 546.7 165 547.3 180 547.5C195 547.7 210 547.3 225 547.3C240 547.3 255 547.7 270 547.5C285 547.3 300 546.7 315 546.3C330 546 345 546 360 546.3C375 546.7 390 547.3 405 547.2C420 547 435 546 450 546.2C465 546.3 480 547.7 495 548.5C510 549.3 525 549.7 540 549.5C555 549.3 570 548.7 585 548.7C600 548.7 615 549.3 630 549.7C645 550 660 550 675 550.2C690 550.3 705 550.7 720 550.8C735 551 750 551 765 550.3C780 549.7 795 548.3 810 547.3C825 546.3 840 545.7 855 546.3C870 547 885 549 892.5 550L900 551L900 601L892.5 601C885 601 870 601 855 601C840 601 825 601 810 601C795 601 780 601 765 601C750 601 735 601 720 601C705 601 690 601 675 601C660 601 645 601 630 601C615 601 600 601 585 601C570 601 555 601 540 601C525 601 510 601 495 601C480 601 465 601 450 601C435 601 420 601 405 601C390 601 375 601 360 601C345 601 330 601 315 601C300 601 285 601 270 601C255 601 240 601 225 601C210 601 195 601 180 601C165 601 150 601 135 601C120 601 105 601 90 601C75 601 60 601 45 601C30 601 15 601 7.5 601L0 601Z" fill="#00ece6"></path><path d="M0 567L7.5 567.7C15 568.3 30 569.7 45 569.7C60 569.7 75 568.3 90 568.5C105 568.7 120 570.3 135 570.8C150 571.3 165 570.7 180 570C195 569.3 210 568.7 225 568.2C240 567.7 255 567.3 270 567.5C285 567.7 300 568.3 315 568.3C330 568.3 345 567.7 360 567.2C375 566.7 390 566.3 405 567.2C420 568 435 570 450 570C465 570 480 568 495 567.2C510 566.3 525 566.7 540 567.3C555 568 570 569 585 569.7C600 570.3 615 570.7 630 570C645 569.3 660 567.7 675 567C690 566.3 705 566.7 720 566.7C735 566.7 750 566.3 765 566.7C780 567 795 568 810 568.5C825 569 840 569 855 569.5C870 570 885 571 892.5 571.5L900 572L900 601L892.5 601C885 601 870 601 855 601C840 601 825 601 810 601C795 601 780 601 765 601C750 601 735 601 720 601C705 601 690 601 675 601C660 601 645 601 630 601C615 601 600 601 585 601C570 601 555 601 540 601C525 601 510 601 495 601C480 601 465 601 450 601C435 601 420 601 405 601C390 601 375 601 360 601C345 601 330 601 315 601C300 601 285 601 270 601C255 601 240 601 225 601C210 601 195 601 180 601C165 601 150 601 135 601C120 601 105 601 90 601C75 601 60 601 45 601C30 601 15 601 7.5 601L0 601Z" fill="#69fad2"></path></svg>